<svg id="Layer_1" data-name="Layer 1" xmlns="http://www.w3.org/2000/svg" viewBox="0 0 5648 1024"><defs><style>.cls-1{fill:#9fcc2e;}.cls-2{fill:#626c5e;}</style></defs><path class="cls-1" d="M1322.47,343.37V470h170v80.28h-170V684.05h191.67V766.5H1221.2V260.91h292.94v82.46Z"/><path class="cls-1" d="M1604.19,456.93q24.22-47,65.83-72.34T1763,359.28q44.85,0,78.48,18.08t53.89,45.57V365.79h102V766.5h-102V707.92q-19.53,28.2-53.89,46.65T1762.24,773q-50.64,0-92.22-26t-65.83-73.41Q1579.95,626.19,1580,564.7,1580,503.94,1604.19,456.93Zm276.67,45.93q-14.47-26.4-39.06-40.51a104.42,104.42,0,0,0-52.8-14.1A102.72,102.72,0,0,0,1736.92,462q-23.87,13.74-38.7,40.14T1683.4,564.7q0,36.18,14.82,63.29t39.06,41.59A99.16,99.16,0,0,0,1789,684.05a104.33,104.33,0,0,0,52.8-14.11q24.59-14.1,39.06-40.5t14.47-63.29Q1895.33,529.25,1880.86,502.86Z"/><path class="cls-1" d="M2248.66,378.08q31.47-18.06,72-18.08V466.33h-26.76q-47.73,0-72,22.42t-24.23,78.12V766.5H2096.41V365.79h101.26V428A142.51,142.51,0,0,1,2248.66,378.08Z"/><path class="cls-1" d="M2726.41,405.21q44.1,45.21,44.12,126.22V766.5H2669.27V545.17q0-47.74-23.87-73.42t-65.1-25.67q-42,0-66.19,25.67t-24.23,73.42V766.5H2388.62V365.79h101.26V415.7q20.25-26,51.72-40.87T2610.68,360Q2682.29,360,2726.41,405.21Z"/><path class="cls-2" d="M2875.77,379.89Q2909.4,321,2967.63,288t130.56-32.91q84.63,0,148.28,43.4t89,120.07H3219q-17.36-36.16-48.82-54.25t-72.7-18.08q-44.11,0-78.47,20.61t-53.53,58.23q-19.17,37.62-19.17,88.24,0,49.92,19.17,87.89T3019,659.82q34.34,20.61,78.47,20.61,41.23,0,72.7-18.44T3219,607.38h116.45q-25.32,77.4-88.6,120.43t-148.64,43q-72.34,0-130.56-32.91t-91.86-91.5q-33.63-58.57-33.63-133.09T2875.77,379.89Z"/><path class="cls-2" d="M3420.42,456.93q24.23-47,65.82-72.34t92.94-25.31q44.85,0,78.48,18.08t53.89,45.57V365.79h102V766.5h-102V707.92q-19.53,28.2-53.89,46.65T3578.46,773q-50.64,0-92.22-26t-65.82-73.41q-24.24-47.37-24.23-108.86Q3396.19,503.94,3420.42,456.93Zm276.66,45.93q-14.48-26.4-39-40.51a104.45,104.45,0,0,0-52.81-14.1A102.65,102.65,0,0,0,3553.15,462q-23.88,13.74-38.7,40.14t-14.83,62.57q0,36.18,14.83,63.29t39.06,41.59a99.12,99.12,0,0,0,51.71,14.47A104.36,104.36,0,0,0,3658,669.94q24.57-14.1,39-40.5t14.47-63.29Q3711.55,529.25,3697.08,502.86Z"/><path class="cls-2" d="M4067.78,377.72q34.35-18.44,78.48-18.44,51.34,0,92.94,25.31t65.83,72q24.23,46.67,24.23,108.14T4305,673.56q-24.26,47.38-65.83,73.41t-92.94,26q-44.13,0-77.76-18.09t-54.61-45.57v248.1H3912.63V365.79h101.26v57.86Q4033.42,396.17,4067.78,377.72ZM4211,502.13q-14.84-26.38-39.06-40.14a104.68,104.68,0,0,0-52.44-13.74,101.15,101.15,0,0,0-51.72,14.1q-24.24,14.1-39.06,40.87t-14.83,62.93q0,36.18,14.83,62.92t39.06,40.87a102.05,102.05,0,0,0,104.16-.36q24.23-14.46,39.06-41.23t14.82-63.65Q4225.82,528.54,4211,502.13Z"/><path class="cls-2" d="M4409.9,301.05q-17.73-17-17.72-42.31t17.72-42.32q17.72-17,44.49-17t44.48,17q17.72,17,17.72,42.32t-17.72,42.31q-17.73,17-44.48,17T4409.9,301.05Zm94.39,64.74V766.5H4403V365.79Z"/><path class="cls-2" d="M4722,449V642.82q0,20.25,9.77,29.29t32.91,9h47V766.5h-63.65q-128,0-128-124.41V449h-47.74V365.79H4620v-99.1h102v99.1h89.69V449Z"/><path class="cls-2" d="M4882.94,456.93q24.23-47,65.82-72.34t92.95-25.31q44.84,0,78.48,18.08t53.88,45.57V365.79h102V766.5h-102V707.92q-19.51,28.2-53.88,46.65T5041,773q-50.64,0-92.23-26t-65.82-73.41q-24.24-47.37-24.23-108.86Q4858.71,503.94,4882.94,456.93Zm276.67,45.93q-14.49-26.4-39.06-40.51a104.44,104.44,0,0,0-52.8-14.1A102.66,102.66,0,0,0,5015.67,462q-23.88,13.74-38.7,40.14t-14.83,62.57q0,36.18,14.83,63.29T5016,669.58a99.16,99.16,0,0,0,51.72,14.47,104.35,104.35,0,0,0,52.8-14.11q24.58-14.1,39.06-40.5t14.46-63.29Q5174.07,529.25,5159.61,502.86Z"/><path class="cls-2" d="M5476.41,231.25V766.5H5375.15V231.25Z"/><path class="cls-2" d="M1032.07,381.7c0,63.51-24.08,123.53-66.92,176.71-.21.37-.53.69-.79,1.06C859.54,688.79,644,777.54,395,777.54c-5.25,0-10.49,0-15.74-.1-.32-.27-.59-.59-.85-.85,245.06-14,450-182.44,524.31-412.23q4.93-15.19,9.07-30.75a617.79,617.79,0,0,0,19.35-116.86A552.39,552.39,0,0,1,1032,379.58C1032.07,380.27,1032.07,381,1032.07,381.7Z"/><path class="cls-1" d="M943.5,624.68C906.07,801.13,749.39,933.52,561.81,933.52A391.25,391.25,0,0,1,255.2,784.69c-.74-1-1.54-2-2.28-3a389.61,389.61,0,0,1-29.27-43.58c-1-1.69-2-3.39-2.92-5.14a6.11,6.11,0,0,1-.31-.58A388.27,388.27,0,0,1,171.59,543.3c0-154.35,89.6-287.74,219.6-351a388.25,388.25,0,0,1,170.62-39.23c7.74,0,15.48.21,23.12.69a390.75,390.75,0,0,1,48.83,189.12c0,139.34-73.06,261.65-183,330.63a390.56,390.56,0,0,0,18-373.31C325.93,371.56,248.57,526.17,292.68,670a277.94,277.94,0,0,0,24.18,56.15c3.29,5.83,6.84,11.56,10.55,17.18.27.42.58.9.9,1.32a281,281,0,0,0,27.57,34.73c3,3.24,6.05,6.42,9.23,9.49a9.74,9.74,0,0,0,.85.85c82.55,80.64,213.14,113.46,340.44,74.44C828.77,826.63,916.35,732.36,943.5,624.68Z"/><path class="cls-2" d="M875.43,186.74a578,578,0,0,1-10.76,110.49q-4.29,21.87-10.29,43.11C795.27,552.41,617.28,712.8,399.26,740.42c4.24-4.4-4,4.62,0,0C562.72,689.21,694,519.44,694,334.66a422.16,422.16,0,0,0-5.78-69.88,415.62,415.62,0,0,0-29.8-99.67,412,412,0,0,0-61.5-98.57C702.06,74.49,798.23,118.24,875.43,186.74Z"/></svg>